<svg width="137" height="34" viewBox="0 0 137 34" fill="none" xmlns="http://www.w3.org/2000/svg">
<path d="M23.9445 17.0001C21.4495 19.8131 17.8238 21.5834 13.7883 21.5834C9.7528 21.5834 6.12705 19.8131 3.63208 17.0001C6.12705 14.1871 9.7528 12.4167 13.7883 12.4167C17.8238 12.4167 21.4495 14.1871 23.9445 17.0001Z" fill="white"/>
<path fill-rule="evenodd" clip-rule="evenodd" d="M0.162537 26.1667C0.162537 18.5728 6.26299 12.4167 13.7883 12.4167C9.75279 12.4167 6.12707 14.1871 3.6321 17.0001C6.12707 19.8131 9.75282 21.5834 13.7883 21.5834C17.8238 21.5834 21.4495 19.8131 23.9445 17.0001C26.1021 19.4327 27.414 22.6451 27.414 26.1667V31.3612C27.414 32.0362 26.8718 32.5834 26.2029 32.5834H1.37371C0.704799 32.5834 0.162537 32.0362 0.162537 31.3612V26.1667ZM23.9445 17.0001C23.9445 17.0001 23.9445 17.0001 23.9445 17.0001Z" fill="#7CD4FD"/>
<path fill-rule="evenodd" clip-rule="evenodd" d="M8.67743 20.5834C6.73186 19.7885 5.00963 18.5532 3.6321 17.0001C6.12707 14.1871 9.75282 12.4167 13.7883 12.4167C17.8238 12.4167 21.4495 14.1871 23.9445 17.0001C23.9445 17.0001 23.9445 17.0001 23.9445 17.0001C26.1021 14.5674 27.414 11.355 27.414 7.83342V2.63897C27.414 1.96396 26.8718 1.41675 26.2029 1.41675L1.37371 1.41675C0.7048 1.41675 0.162537 1.96396 0.162537 2.63897L0.162537 7.83341C0.162536 13.6034 3.68452 18.5434 8.67743 20.5834Z" fill="#0BA5EC"/>
<path d="M48.697 10.2397V24.0834H45.9454V18.1929H40.0688V24.0834H37.3173V10.2397H40.0688V15.9319H45.9454V10.2397H48.697Z" fill="#101828"/>
<path d="M56.2402 24.2619C55.192 24.2619 54.2486 24.0305 53.41 23.5677C52.5714 23.0917 51.9097 22.424 51.4249 21.5646C50.9532 20.7051 50.7174 19.7135 50.7174 18.5896C50.7174 17.4657 50.9598 16.474 51.4446 15.6146C51.9425 14.7551 52.6173 14.094 53.4689 13.6312C54.3206 13.1552 55.2706 12.9172 56.3188 12.9172C57.367 12.9172 58.317 13.1552 59.1686 13.6312C60.0203 14.094 60.6886 14.7551 61.1734 15.6146C61.6713 16.474 61.9202 17.4657 61.9202 18.5896C61.9202 19.7135 61.6647 20.7051 61.1537 21.5646C60.6558 22.424 59.9745 23.0917 59.1097 23.5677C58.258 24.0305 57.3015 24.2619 56.2402 24.2619ZM56.2402 21.8422C56.7381 21.8422 57.2032 21.7232 57.6356 21.4852C58.0811 21.234 58.4349 20.8638 58.6969 20.3746C58.959 19.8853 59.09 19.2903 59.09 18.5896C59.09 17.545 58.8149 16.7451 58.2645 16.1897C57.7273 15.6212 57.0656 15.3369 56.2795 15.3369C55.4933 15.3369 54.8316 15.6212 54.2944 16.1897C53.7703 16.7451 53.5083 17.545 53.5083 18.5896C53.5083 19.6341 53.7638 20.4407 54.2748 21.0092C54.7989 21.5646 55.454 21.8422 56.2402 21.8422Z" fill="#101828"/>
<path d="M74.2177 13.0957V24.0834H71.4465V22.6951C71.0927 23.1711 70.6275 23.5479 70.051 23.8256C69.4876 24.09 68.8718 24.2222 68.2035 24.2222C67.3519 24.2222 66.5985 24.0437 65.9433 23.6867C65.2882 23.3165 64.7706 22.781 64.3906 22.0802C64.0238 21.3662 63.8403 20.52 63.8403 19.5416V13.0957H66.5919V19.1449C66.5919 20.0176 66.8081 20.6919 67.2405 21.1679C67.6729 21.6307 68.2625 21.8621 69.0094 21.8621C69.7693 21.8621 70.3655 21.6307 70.7979 21.1679C71.2303 20.6919 71.4465 20.0176 71.4465 19.1449V13.0957H74.2177Z" fill="#101828"/>
<path d="M79.6841 14.8014C80.0379 14.2196 80.4965 13.7635 81.0599 13.4329C81.6365 13.1023 82.2916 12.9371 83.0253 12.9371V15.8526H82.2981C81.4334 15.8526 80.7782 16.0575 80.3327 16.4674C79.9003 16.8773 79.6841 17.5913 79.6841 18.6094V24.0834H76.9326V13.0957H79.6841V14.8014Z" fill="#101828"/>
<path d="M89.1436 12.9172C89.956 12.9172 90.6701 13.0825 91.2859 13.4131C91.9017 13.7304 92.3865 14.1469 92.7403 14.6626V13.0957H95.5115V24.1627C95.5115 25.1808 95.3084 26.0866 94.9023 26.8799C94.4961 27.6865 93.8868 28.3211 93.0744 28.7839C92.2621 29.2599 91.2793 29.4979 90.1263 29.4979C88.5802 29.4979 87.3092 29.1343 86.3134 28.4071C85.3307 27.6798 84.7738 26.6882 84.6428 25.4321H87.3747C87.5189 25.9345 87.8268 26.3312 88.2985 26.6221C88.7833 26.9262 89.3663 27.0782 90.0477 27.0782C90.847 27.0782 91.4955 26.8336 91.9935 26.3444C92.4914 25.8684 92.7403 25.1412 92.7403 24.1627V22.4571C92.3865 22.9727 91.8952 23.4025 91.2662 23.7462C90.6504 24.09 89.9429 24.2619 89.1436 24.2619C88.2264 24.2619 87.3878 24.0239 86.6279 23.5479C85.8679 23.0719 85.2652 22.4042 84.8197 21.5447C84.3873 20.6721 84.1711 19.6738 84.1711 18.5499C84.1711 17.4392 84.3873 16.4542 84.8197 15.5947C85.2652 14.7353 85.8614 14.0742 86.6082 13.6114C87.3682 13.1486 88.2133 12.9172 89.1436 12.9172ZM92.7403 18.5896C92.7403 17.9152 92.6093 17.3401 92.3472 16.8641C92.0852 16.3748 91.7314 16.0046 91.2859 15.7534C90.8404 15.489 90.3622 15.3567 89.8512 15.3567C89.3401 15.3567 88.8684 15.4823 88.4361 15.7336C88.0037 15.9848 87.6499 16.355 87.3747 16.8442C87.1127 17.3202 86.9817 17.8888 86.9817 18.5499C86.9817 19.211 87.1127 19.7928 87.3747 20.2952C87.6499 20.7845 88.0037 21.1613 88.4361 21.4257C88.8815 21.6902 89.3532 21.8224 89.8512 21.8224C90.3622 21.8224 90.8404 21.6968 91.2859 21.4456C91.7314 21.1811 92.0852 20.8109 92.3472 20.3349C92.6093 19.8457 92.7403 19.2639 92.7403 18.5896Z" fill="#101828"/>
<path d="M100.95 9.40674V24.0834H98.1989V9.40674H100.95Z" fill="#101828"/>
<path d="M102.962 18.5499C102.962 17.4392 103.178 16.4542 103.61 15.5947C104.056 14.7353 104.652 14.0742 105.399 13.6114C106.159 13.1486 107.004 12.9172 107.934 12.9172C108.746 12.9172 109.454 13.0825 110.057 13.4131C110.672 13.7436 111.164 14.1601 111.531 14.6626V13.0957H114.302V24.0834H111.531V22.4769C111.177 22.9926 110.686 23.4223 110.057 23.7661C109.441 24.0966 108.727 24.2619 107.914 24.2619C106.997 24.2619 106.159 24.0239 105.399 23.5479C104.652 23.0719 104.056 22.4042 103.61 21.5447C103.178 20.6721 102.962 19.6738 102.962 18.5499ZM111.531 18.5896C111.531 17.9152 111.4 17.3401 111.138 16.8641C110.876 16.3748 110.522 16.0046 110.076 15.7534C109.631 15.489 109.153 15.3567 108.642 15.3567C108.131 15.3567 107.659 15.4823 107.226 15.7336C106.794 15.9848 106.44 16.355 106.165 16.8442C105.903 17.3202 105.772 17.8888 105.772 18.5499C105.772 19.211 105.903 19.7928 106.165 20.2952C106.44 20.7845 106.794 21.1613 107.226 21.4257C107.672 21.6902 108.144 21.8224 108.642 21.8224C109.153 21.8224 109.631 21.6968 110.076 21.4456C110.522 21.1811 110.876 20.8109 111.138 20.3349C111.4 19.8457 111.531 19.2639 111.531 18.5896Z" fill="#101828"/>
<path d="M121.156 24.2619C120.265 24.2619 119.466 24.1032 118.758 23.7859C118.051 23.4553 117.487 23.0124 117.068 22.4571C116.662 21.9017 116.439 21.2869 116.4 20.6126H119.171C119.223 21.0357 119.426 21.3861 119.78 21.6637C120.147 21.9414 120.599 22.0802 121.136 22.0802C121.66 22.0802 122.067 21.9745 122.355 21.7629C122.656 21.5513 122.807 21.2803 122.807 20.9497C122.807 20.5927 122.624 20.3283 122.257 20.1564C121.903 19.9713 121.333 19.773 120.547 19.5614C119.734 19.3631 119.066 19.1581 118.542 18.9466C118.031 18.735 117.586 18.4111 117.206 17.9747C116.839 17.5384 116.655 16.95 116.655 16.2096C116.655 15.6013 116.826 15.046 117.166 14.5436C117.52 14.0411 118.018 13.6445 118.66 13.3536C119.315 13.0627 120.082 12.9172 120.959 12.9172C122.257 12.9172 123.292 13.2478 124.065 13.9089C124.838 14.5568 125.264 15.4361 125.342 16.5467H122.709C122.669 16.1104 122.486 15.7666 122.158 15.5154C121.844 15.251 121.418 15.1187 120.881 15.1187C120.383 15.1187 119.996 15.2113 119.721 15.3964C119.459 15.5815 119.328 15.8393 119.328 16.1699C119.328 16.5401 119.512 16.8244 119.878 17.0227C120.245 17.2078 120.815 17.3996 121.588 17.5979C122.375 17.7962 123.023 18.0012 123.534 18.2127C124.045 18.4243 124.484 18.7548 124.851 19.2044C125.231 19.6407 125.427 20.2225 125.441 20.9497C125.441 21.5844 125.264 22.153 124.91 22.6554C124.569 23.1578 124.071 23.5545 123.416 23.8454C122.774 24.1231 122.021 24.2619 121.156 24.2619Z" fill="#101828"/>
<path d="M131.866 24.2619C130.975 24.2619 130.176 24.1032 129.468 23.7859C128.761 23.4553 128.197 23.0124 127.778 22.4571C127.372 21.9017 127.149 21.2869 127.11 20.6126H129.881C129.933 21.0357 130.136 21.3861 130.49 21.6637C130.857 21.9414 131.309 22.0802 131.846 22.0802C132.37 22.0802 132.777 21.9745 133.065 21.7629C133.366 21.5513 133.517 21.2803 133.517 20.9497C133.517 20.5927 133.333 20.3283 132.967 20.1564C132.613 19.9713 132.043 19.773 131.257 19.5614C130.444 19.3631 129.776 19.1581 129.252 18.9466C128.741 18.735 128.295 18.4111 127.915 17.9747C127.549 17.5384 127.365 16.95 127.365 16.2096C127.365 15.6013 127.535 15.046 127.876 14.5436C128.23 14.0411 128.728 13.6445 129.37 13.3536C130.025 13.0627 130.792 12.9172 131.669 12.9172C132.967 12.9172 134.002 13.2478 134.775 13.9089C135.548 14.5568 135.974 15.4361 136.052 16.5467H133.419C133.379 16.1104 133.196 15.7666 132.868 15.5154C132.554 15.251 132.128 15.1187 131.591 15.1187C131.093 15.1187 130.706 15.2113 130.431 15.3964C130.169 15.5815 130.038 15.8393 130.038 16.1699C130.038 16.5401 130.222 16.8244 130.588 17.0227C130.955 17.2078 131.525 17.3996 132.298 17.5979C133.084 17.7962 133.733 18.0012 134.244 18.2127C134.755 18.4243 135.194 18.7548 135.561 19.2044C135.941 19.6407 136.137 20.2225 136.151 20.9497C136.151 21.5844 135.974 22.153 135.62 22.6554C135.279 23.1578 134.781 23.5545 134.126 23.8454C133.484 24.1231 132.731 24.2619 131.866 24.2619Z" fill="#101828"/>
</svg>
