<svg width="28" height="32" viewBox="0 0 28 32" fill="none" xmlns="http://www.w3.org/2000/svg">
<path d="M23.9445 16.0001C21.4495 18.8131 17.8238 20.5834 13.7883 20.5834C9.7528 20.5834 6.12705 18.8131 3.63208 16.0001C6.12705 13.1871 9.7528 11.4167 13.7883 11.4167C17.8238 11.4167 21.4495 13.1871 23.9445 16.0001Z" fill="white"/>
<path fill-rule="evenodd" clip-rule="evenodd" d="M0.162537 25.1667C0.162537 17.5728 6.26299 11.4167 13.7883 11.4167C9.75279 11.4167 6.12707 13.1871 3.6321 16.0001C6.12707 18.8131 9.75282 20.5834 13.7883 20.5834C17.8238 20.5834 21.4495 18.8131 23.9445 16.0001C26.1021 18.4327 27.414 21.6451 27.414 25.1667V30.3612C27.414 31.0362 26.8718 31.5834 26.2029 31.5834H1.37371C0.704799 31.5834 0.162537 31.0362 0.162537 30.3612V25.1667ZM23.9445 16.0001C23.9445 16.0001 23.9445 16.0001 23.9445 16.0001Z" fill="#7CD4FD"/>
<path fill-rule="evenodd" clip-rule="evenodd" d="M8.67743 19.5834C6.73186 18.7885 5.00963 17.5532 3.6321 16.0001C6.12707 13.1871 9.75282 11.4167 13.7883 11.4167C17.8238 11.4167 21.4495 13.1871 23.9445 16.0001C23.9445 16.0001 23.9445 16.0001 23.9445 16.0001C26.1021 13.5674 27.414 10.355 27.414 6.83342V1.63897C27.414 0.963958 26.8718 0.41675 26.2029 0.41675L1.37371 0.416748C0.7048 0.416748 0.162537 0.963956 0.162537 1.63897L0.162537 6.83341C0.162536 12.6034 3.68452 17.5434 8.67743 19.5834Z" fill="#0BA5EC"/>
</svg>
